<?xml version="1.0"?>
<svg xmlns:rdf="http://www.w3.org/1999/02/22-rdf-syntax-ns#" xmlns="http://www.w3.org/2000/svg" xmlns:cc="http://creativecommons.org/ns#" xmlns:xlink="http://www.w3.org/1999/xlink" xmlns:dc="http://purl.org/dc/elements/1.1/" id="svg40140" viewBox="0 0 516.78 528.74" version="1.1">
 <defs id="defs40142">
  <linearGradient id="linearGradient10804" y2="46.68" gradientUnits="userSpaceOnUse" x2="-21741" gradientTransform="matrix(8.6826 1.207 -1.207 8.6826 1.8933e5 26162)" y1="52.349" x1="-21740">
   <stop id="stop11525" stop-color="#a30b0a" offset="0"/>
   <stop id="stop11527" stop-color="#fff" offset="1"/>
  </linearGradient>
  <linearGradient id="linearGradient10802" y2="46.326" gradientUnits="userSpaceOnUse" x2="-21633" gradientTransform="matrix(6.7181 .93394 -1.1332 8.1512 1.4593e5 20157)" y1="50.392" x1="-21630">
   <stop id="stop11533" offset="0"/>
   <stop id="stop11535" stop-opacity="0" offset="1"/>
  </linearGradient>
  <radialGradient id="radialGradient10800" xlink:href="#linearGradient11439" gradientUnits="userSpaceOnUse" cy="43.045" cx="-21778" gradientTransform="matrix(-25.253 -1.7847 .088646 -1.2542 -5.4963e5 -38412)" r="7.7896"/>
  <linearGradient id="linearGradient11439">
   <stop id="stop11441" stop-color="#fff" offset="0"/>
   <stop id="stop11443" stop-color="#fff" stop-opacity="0" offset="1"/>
  </linearGradient>
  <radialGradient id="radialGradient10798" xlink:href="#linearGradient11439" gradientUnits="userSpaceOnUse" cy="60.949" cx="-21778" gradientTransform="matrix(-25.253 -1.7847 .088646 -1.2542 -5.4963e5 -38412)" r="7.7896"/>
  <linearGradient id="linearGradient10796" y2="48.624" gradientUnits="userSpaceOnUse" x2="-21772" gradientTransform="matrix(7.9613 0 0 7.9613 1.7373e5 -47.182)" y1="52.16" x1="-21773">
   <stop id="stop11475" offset="0"/>
   <stop id="stop11477" stop-opacity="0" offset="1"/>
  </linearGradient>
  <radialGradient id="radialGradient10794" gradientUnits="userSpaceOnUse" cy="43.605" cx="-21774" gradientTransform="matrix(-43.971 -4.7534 .22850 -2.1137 -9.5707e5 -1.0311e5)" r="6.6815">
   <stop id="stop11457" stop-color="#fff" offset="0"/>
   <stop id="stop11459" stop-color="#fff" stop-opacity="0" offset="1"/>
  </radialGradient>
  <linearGradient id="linearGradient10792" y2="42.647" gradientUnits="userSpaceOnUse" x2="-21777" gradientTransform="matrix(7.9613 0 0 7.9613 1.7373e5 -47.182)" y1="45.707" x1="-21770">
   <stop id="stop11417" stop-color="#7d0202" offset="0"/>
   <stop id="stop11419" offset="1"/>
  </linearGradient>
  <radialGradient id="radialGradient10790" gradientUnits="userSpaceOnUse" cy="40.737" cx="-21771" gradientTransform="matrix(-32.286 -4.6364 .43473 -3.0273 -7.0249e5 -1.0054e5)" r="5.953">
   <stop id="stop11487" stop-color="#fff" offset="0"/>
   <stop id="stop11489" stop-color="#fff" stop-opacity="0" offset="1"/>
  </radialGradient>
  <linearGradient id="linearGradient10788" y2="30.858" gradientUnits="userSpaceOnUse" x2="-21771" gradientTransform="matrix(7.9613 0 0 7.9613 1.7373e5 -47.182)" y1="44.337" x1="-21767">
   <stop id="stop11429" stop-color="#9a0000" offset="0"/>
   <stop id="stop11431" offset="1"/>
  </linearGradient>
  <linearGradient id="linearGradient10786" y2="44.47" gradientUnits="userSpaceOnUse" x2="-21767" gradientTransform="matrix(7.9613 0 0 7.9613 1.7373e5 -47.182)" y1="50.171" x1="-21769">
   <stop id="stop11499" offset="0"/>
   <stop id="stop11501" stop-opacity="0" offset="1"/>
  </linearGradient>
  <linearGradient id="linearGradient10784" y2="46.149" gradientUnits="userSpaceOnUse" x2="-21775" gradientTransform="matrix(7.9613 0 0 7.9613 1.7373e5 -47.182)" y1="53.044" x1="-21770">
   <stop id="stop11407" stop-color="#950101" offset="0"/>
   <stop id="stop11409" offset="1"/>
  </linearGradient>
  <linearGradient id="linearGradient10782" y2="46.362" gradientUnits="userSpaceOnUse" x2="-21785" gradientTransform="matrix(9.1941 0 0 9.1941 2.0059e5 -114.94)" y1="49.425" x1="-21770">
   <stop id="stop11577" offset="0"/>
   <stop id="stop11579" stop-opacity="0" offset="1"/>
  </linearGradient>
  <radialGradient id="radialGradient10780" gradientUnits="userSpaceOnUse" cy="45.911" cx="-21793" gradientTransform="matrix(-5.239 5.9048 -1.2679 -1.1249 -1.1387e5 1.2905e5)" r="5.8672">
   <stop id="stop11557" stop-color="#fff" offset="0"/>
   <stop id="stop11559" stop-color="#fff" stop-opacity="0" offset="1"/>
  </radialGradient>
  <linearGradient id="linearGradient10777" y2="51.487" gradientUnits="userSpaceOnUse" x2="-21790" gradientTransform="matrix(9.1941 0 0 9.1941 2.0059e5 -114.94)" y1="45.237" x1="-21788">
   <stop id="stop11547" offset="0"/>
   <stop id="stop11549" stop-opacity="0" offset="1"/>
  </linearGradient>
  <linearGradient id="linearGradient10773" y2="57.362" gradientUnits="userSpaceOnUse" x2="-21640" gradientTransform="matrix(6.7827 0 0 6.7827 1.4725e5 8.1639)" y1="67.977" x1="-21639">
   <stop id="stop11381" stop-color="#9c0001" offset="0"/>
   <stop id="stop11383" stop-color="#fff" offset="1"/>
  </linearGradient>
  <filter id="filter11353" color-interpolation-filters="sRGB">
   <feGaussianBlur id="feGaussianBlur11355" stdDeviation="0.23508"/>
  </filter>
  <filter id="filter11365" color-interpolation-filters="sRGB">
   <feGaussianBlur id="feGaussianBlur11367" stdDeviation="0.3555959"/>
  </filter>
 </defs>
 <g id="layer1" transform="translate(-137.32 -244.3)">
  <path id="path10604" d="m621.42 676.99 23.992-270.98-363.31 73.14 10.793 293.46 328.53-95.622z" fill="#c1bdbc"/>
  <path id="path10606" d="m293.43 773.04-129.51-171.27-18.65-236.33 137.14 111.92 11.02 295.68z" fill="#94908f"/>
  <path id="path10608" d="m-21836-187.53 0.231-6.5846-53.706 10.257 0.157 7.1562 53.318-10.829z" transform="matrix(6.7827 0 0 6.7827 1.4875e5 1706)" filter="url(#filter11365)"/>
  <path id="path10610" d="m-21889-176.67-0.219-7.25-19.721-17.263v5.6022l19.942 18.91z" transform="matrix(6.7827 0 0 6.7827 1.4875e5 1706)" filter="url(#filter11353)"/>
  <path id="path10612" d="m649.73 432.21 3.8308-44.511-373.27 71.218 1.0556 48.539 368.38-75.246z" fill="#c2bebd"/>
  <path id="path10614" d="m281.56 507.66-1.475-49.174-142.76-125.48 3.2925 40.696 140.94 133.96z" fill="#9a9695"/>
  <path id="path10616" d="m653.34 387.7-373.04 71.67-142.71-126.36 316.24-45.99 199.51 100.68z" fill="#dddcda"/>
  <path id="path10618" d="m652.75 387.99-372.83 70.55" stroke="#fff" stroke-width="2.7131" fill="none"/>
  <path id="path10620" d="m499.13 713.19-65.424 18.96 8.5424-304.55-98.797-67.664 60.839-17.169 110.43 71.006-15.589 299.42z" fill="url(#linearGradient10773)"/>
  <path id="path10622" d="m442.24 427.59-166.24-114.12 66.54-9.38 172.17 109.68-72.47 13.82z" fill="#b90006"/>
  <path id="path10624" d="m234.61 695.25-25.858-33.808-23.209-285.08 339.61-54.235 38.308 19.33-350.32 58.751 21.468 295.05z" fill="#630005"/>
  <path id="path10636" d="m195.72 379.75 339.6-54.235 38.308 19.33-350.3 58.751-27.606-23.845z" fill="#a90007"/>
  <path id="path10638" d="m288.92 329.71c-15.253 1.4995-29.109 0.0699-36.77-14.366l-27.592 2.2985c-6.3754 2.3314-21.153 30.602 3.7469 39.075l93.946 10.631-0.82488-28.731-32.478-8.9066z" fill="#a00c0d"/>
  <path id="path10640" d="m288.92 329.71c-15.253 1.4995-29.109 0.0699-36.77-14.366l-27.592 2.2985c-6.3754 2.3314-21.153 30.602 3.7469 39.075l93.946 10.631-0.82488-28.731-32.478-8.9066z" fill="url(#linearGradient10777)"/>
  <path id="path10642" opacity=".27391" d="m288.92 329.71c-15.253 1.4995-29.109 0.0699-36.77-14.366l-27.592 2.2985c-6.3754 2.3314-21.153 30.602 3.7469 39.075l93.946 10.631-0.82488-28.731-32.478-8.9066z" fill="url(#radialGradient10780)"/>
  <path id="path10644" d="m325.86 357.11c-30.556-21.563-67.899-45.511-102.8-38.804l39.399-28.442c33.177-6.0454 69.262 17.604 105.04 38.195l-41.643 29.051z" fill="#a70007"/>
  <path id="path10646" opacity=".66087" d="m325.86 357.11c-30.556-21.563-67.899-45.511-102.8-38.804l39.399-28.442c33.177-6.0454 69.262 17.604 105.04 38.195l-41.643 29.051z" fill="url(#linearGradient10782)"/>
  <path id="path10648" d="m465.35 326.4-84.348 87.823c-16.043 4.7263-7.9832-97.601 44.544-52.135 47.438-128.24 50.423-67.443 39.804-35.687z" fill="url(#linearGradient10784)"/>
  <path id="path10650" opacity=".98261" d="m431.11 349.92c-1.0905 0.33555 24.893-67.026 35.54-65.978l-31.604-2.4886-3.9357 68.467z" fill="#a40000"/>
  <path id="path10653" opacity=".98261" d="m431.15 349.93c6.0608-17.26 24.858-67.037 35.505-65.989l-33.184-3.1919-2.3209 69.181z" fill="url(#linearGradient10786)"/>
  <path id="path10655" d="m427.28 364.56c-4.0056-74.242 18.399-178.04 16.043-61.793-0.8109 10.242-8.9199 37.153-16.043 61.793z" fill="url(#linearGradient10788)"/>
  <path id="path10657" d="m426.78 331.37c6.1657-75.924 9.7868-75.206 13.687-80.11l-87.074-6.9661c-6.3544 9.3114-6.3614 19.419-7.7106 29.357l81.097 57.72z" fill="#b40101"/>
  <path id="path10668" opacity=".76087" d="m426.78 331.37c6.1657-75.924 9.7868-75.206 13.687-80.11l-87.074-6.9661c-6.3544 9.3114-6.3614 19.419-7.7106 29.357l81.097 57.72z" fill="url(#radialGradient10790)"/>
  <path id="path10670" d="m427.4 365.44c0.48934-46.356 0-88.658-9.6749-94.822-10.647 14.229-9.7798 47.276-7.8084 69.369 1.1674 13.16 5.9979 13.626 17.483 25.453z" fill="url(#linearGradient10792)"/>
  <path id="path10674" d="m426.17 364.62-87.25-11.67c-31.08-22.52-16.4-83.55-10.22-90.43l89.066 8.1139c-6.1377 12.833-18.588 60.332 8.4026 93.982z" fill="#a40e0f"/>
  <path id="path10676" opacity=".60435" d="m426.17 364.62-87.25-11.67c-31.08-22.52-16.4-83.55-10.22-90.43l89.066 8.1139c-6.1377 12.833-18.588 60.332 8.4026 93.982z" fill="url(#radialGradient10794)"/>
  <path id="path10678" opacity=".60435" d="m426.17 364.62-87.25-11.67c-31.08-22.52-16.4-83.55-10.22-90.43l89.066 8.1139c-6.1377 12.833-18.588 60.332 8.4026 93.982z" fill="url(#linearGradient10796)"/>
  <path id="path10680" d="m380.13 413.46-92.876-9.4988c-7.9133-14.25-9.8427-54.861 30.255-59.814l89.192 10.556c-34.456-7.505-37.924 54.31-26.571 58.757z" fill="#b60000"/>
  <path id="path10683" opacity=".60435" d="m380.13 413.46-92.876-9.4988c-7.9133-14.25-9.8427-54.861 30.255-59.814l89.192 10.556c-34.456-7.505-37.924 54.31-26.571 58.757z" fill="url(#radialGradient10798)"/>
  <path id="path10685" opacity=".60435" d="m380.13 413.46-92.876-9.4988c-7.9133-14.25-9.8427-54.861 30.255-59.814l89.192 10.556c-34.456-7.505-37.924 54.31-26.571 58.757z" fill="url(#radialGradient10800)"/>
  <path id="path10687" d="m419 372.84 30.43-30.412c25.138-13.179 129-57.197 115.43 19.368l-28.59 33.98-117.27-22.94z" fill="#a80007"/>
  <path id="path10689" opacity=".33478" d="m419 372.84 30.43-30.412c25.138-13.179 129-57.197 115.43 19.368l-28.59 33.98-117.27-22.94z" fill="url(#linearGradient10802)"/>
  <path id="path10691" d="m414.63 376.13c77.294-38.283 170.17-22.535 121.31 19.212l-121.31-19.212z" fill="url(#linearGradient10804)"/>
 </g>
 <metadata>
  <rdf:RDF>
   <cc:Work>
    <dc:format>image/svg+xml</dc:format>
    <dc:type rdf:resource="http://purl.org/dc/dcmitype/StillImage"/>
    <cc:license rdf:resource="http://creativecommons.org/licenses/publicdomain/"/>
    <dc:publisher>
     <cc:Agent rdf:about="http://openclipart.org/">
      <dc:title>Openclipart</dc:title>
     </cc:Agent>
    </dc:publisher>
   </cc:Work>
   <cc:License rdf:about="http://creativecommons.org/licenses/publicdomain/">
    <cc:permits rdf:resource="http://creativecommons.org/ns#Reproduction"/>
    <cc:permits rdf:resource="http://creativecommons.org/ns#Distribution"/>
    <cc:permits rdf:resource="http://creativecommons.org/ns#DerivativeWorks"/>
   </cc:License>
  </rdf:RDF>
 </metadata>
</svg>
